<?xml version="1.0" encoding="UTF-8" standalone="no"?>
<svg
   height="128px"
   viewBox="0 0 128 128"
   width="128px"
   version="1.1"
   id="svg20"
   sodipodi:docname="org.broomlabs.MamoMusicPlayer.svg"
   inkscape:version="1.4.3 (0d15f75042, 2025-12-25)"
   xmlns:inkscape="http://www.inkscape.org/namespaces/inkscape"
   xmlns:sodipodi="http://sodipodi.sourceforge.net/DTD/sodipodi-0.dtd"
   xmlns:xlink="http://www.w3.org/1999/xlink"
   xmlns="http://www.w3.org/2000/svg"
   xmlns:svg="http://www.w3.org/2000/svg">
  <defs
     id="defs20">
    <linearGradient
       id="linearGradient1"
       inkscape:collect="always">
      <stop
         style="stop-color:#1c71d8;stop-opacity:1;"
         offset="0"
         id="stop5" />
      <stop
         style="stop-color:#77acec;stop-opacity:1;"
         offset="1"
         id="stop6" />
    </linearGradient>
    <linearGradient
       inkscape:collect="always"
       xlink:href="#linearGradient1"
       id="linearGradient6"
       x1="226.89395"
       y1="415.22699"
       x2="237.51704"
       y2="21.1402"
       gradientUnits="userSpaceOnUse" />
  </defs>
  <sodipodi:namedview
     id="namedview20"
     pagecolor="#ffffff"
     bordercolor="#000000"
     borderopacity="0.25"
     inkscape:showpageshadow="2"
     inkscape:pageopacity="0.0"
     inkscape:pagecheckerboard="0"
     inkscape:deskcolor="#d1d1d1"
     inkscape:zoom="4.5390625"
     inkscape:cx="109.71429"
     inkscape:cy="23.022375"
     inkscape:window-width="1908"
     inkscape:window-height="1251"
     inkscape:window-x="0"
     inkscape:window-y="0"
     inkscape:window-maximized="0"
     inkscape:current-layer="svg20" />
  <linearGradient
     id="a"
     gradientUnits="userSpaceOnUse"
     x1="37.000977"
     x2="123.273438"
     y1="121.84668"
     y2="121.84668"
     gradientTransform="translate(11.52791,21.497993)">
    <stop
       offset="0"
       stop-color="#deddda"
       id="stop1" />
    <stop
       offset="0.369815"
       stop-color="#deddda"
       id="stop2" />
    <stop
       offset="0.788404"
       stop-color="#deddda"
       id="stop3" />
    <stop
       offset="1"
       stop-color="#f6f5f4"
       id="stop4" />
  </linearGradient>
  <clipPath
     id="b">
    <path
       d="m 8 7 h 112 v 114 h -112 z m 0 0"
       id="path4" />
  </clipPath>
  <clipPath
     id="c">
    <path
       d="m 64 4 c -33.136719 0 -60 26.414062 -60 59 s 26.863281 59 60 59 s 60 -26.414062 60 -59 s -26.863281 -59 -60 -59 z m 0 47.199219 c 6.625 0 12 5.285156 12 11.800781 s -5.375 11.800781 -12 11.800781 c -6.628906 0 -12 -5.285156 -12 -11.800781 s 5.371094 -11.800781 12 -11.800781 z m 0 0"
       id="path5" />
  </clipPath>
  <clipPath
     id="d">
    <path
       d="m 4 4 h 120 v 118 h -120 z m 0 0"
       id="path6" />
  </clipPath>
  <clipPath
     id="e">
    <path
       d="m 64 4 c -33.136719 0 -60 26.414062 -60 59 s 26.863281 59 60 59 s 60 -26.414062 60 -59 s -26.863281 -59 -60 -59 z m 0 47.199219 c 6.625 0 12 5.285156 12 11.800781 s -5.375 11.800781 -12 11.800781 c -6.628906 0 -12 -5.285156 -12 -11.800781 s 5.371094 -11.800781 12 -11.800781 z m 0 0"
       id="path7" />
  </clipPath>
  <clipPath
     id="f">
    <path
       d="m 64 36 h 60 v 50 h -60 z m 0 0"
       id="path8" />
  </clipPath>
  <clipPath
     id="g">
    <path
       d="m 64 4 c -33.136719 0 -60 26.414062 -60 59 s 26.863281 59 60 59 s 60 -26.414062 60 -59 s -26.863281 -59 -60 -59 z m 0 47.199219 c 6.625 0 12 5.285156 12 11.800781 s -5.375 11.800781 -12 11.800781 c -6.628906 0 -12 -5.285156 -12 -11.800781 s 5.371094 -11.800781 12 -11.800781 z m 0 0"
       id="path9" />
  </clipPath>
  <clipPath
     id="h">
    <path
       d="m 4 59 h 61 v 46 h -61 z m 0 0"
       id="path10" />
  </clipPath>
  <clipPath
     id="i">
    <path
       d="m 64 4 c -33.136719 0 -60 26.414062 -60 59 s 26.863281 59 60 59 s 60 -26.414062 60 -59 s -26.863281 -59 -60 -59 z m 0 47.199219 c 6.625 0 12 5.285156 12 11.800781 s -5.375 11.800781 -12 11.800781 c -6.628906 0 -12 -5.285156 -12 -11.800781 s 5.371094 -11.800781 12 -11.800781 z m 0 0"
       id="path11" />
  </clipPath>
  <circle
     style="opacity:1;fill:#1a5fb4;fill-opacity:1;stroke-width:0.199999;stroke-linecap:round;stroke-linejoin:round"
     id="path23"
     cx="18.581461"
     cy="117.32048"
     r="5.2971802" />
  <g
     id="g22"
     style="fill:#18539b;fill-opacity:1;stroke-width:6.90257"
     transform="matrix(0.23146172,0,0,0.22137937,6.1125974,9.5061907)">
    <path
       class="st0"
       d="m 176.014,0 -2.823,0.01 C 89.091,1.164 20.78,63.557 15.904,118.564 c -3.125,35.072 4.693,63.941 22.568,83.494 16.307,17.803 39.765,26.836 69.727,26.836 31.095,0 61.603,-29.77 61.603,-60.106 0,-30.803 -25.076,-55.869 -55.888,-55.869 -16.569,0 -27.575,7.323 -34.858,12.179 -2.853,1.892 -5.796,3.854 -7.121,3.854 -0.446,0 -1.477,-1.184 -2.458,-5.635 -3.399,-15.335 1.902,-33.644 14.212,-48.98 10.399,-12.978 34.858,-34.726 81.876,-34.726 65.67,0 101.833,52.894 101.833,148.952 0,192.852 -165.703,271.845 -216.483,291.459 -10.398,4.016 -13.778,12.716 -12.492,19.553 1.405,7.427 7.524,12.425 15.263,12.425 2.448,0 5.037,-0.496 7.657,-1.477 l 5.807,-2.165 C 262.916,435.82 362.19,326.247 362.19,182.648 362.19,57.164 265.688,0 176.014,0 Z"
       id="path20"
       style="fill:#18539b;fill-opacity:1;stroke-width:6.90257" />
    <path
       class="st0"
       d="m 455.486,126.84 c 22.771,0 41.282,-18.522 41.282,-41.292 0,-22.76 -18.512,-41.271 -41.282,-41.271 -22.759,0 -41.281,18.511 -41.281,41.271 0,22.77 18.521,41.292 41.281,41.292 z"
       id="path21"
       style="fill:#18539b;fill-opacity:1;stroke-width:6.90257" />
    <path
       class="st0"
       d="m 455.486,211.365 c -22.759,0 -41.281,18.522 -41.281,41.282 0,22.77 18.522,41.281 41.281,41.281 22.771,0 41.282,-18.511 41.282,-41.281 0,-22.76 -18.512,-41.282 -41.282,-41.282 z"
       id="path22"
       style="fill:#18539b;fill-opacity:1;stroke-width:6.90257" />
  </g>
  <g
     id="g3"
     style="fill:url(#linearGradient6);stroke-width:22.08827714;stroke:#1a5fb4;stroke-opacity:1;stroke-dasharray:none"
     transform="matrix(0.23146172,0,0,0.22137937,5.4327684,6.7285209)">
    <path
       class="st0"
       d="m 176.014,0 -2.823,0.01 C 89.091,1.164 20.78,63.557 15.904,118.564 c -3.125,35.072 4.693,63.941 22.568,83.494 16.307,17.803 39.765,26.836 69.727,26.836 31.095,0 61.603,-29.77 61.603,-60.106 0,-30.803 -25.076,-55.869 -55.888,-55.869 -16.569,0 -27.575,7.323 -34.858,12.179 -2.853,1.892 -5.796,3.854 -7.121,3.854 -0.446,0 -1.477,-1.184 -2.458,-5.635 -3.399,-15.335 1.902,-33.644 14.212,-48.98 10.399,-12.978 34.858,-34.726 81.876,-34.726 65.67,0 101.833,52.894 101.833,148.952 0,192.852 -165.703,271.845 -216.483,291.459 -10.398,4.016 -13.778,12.716 -12.492,19.553 1.405,7.427 7.524,12.425 15.263,12.425 2.448,0 5.037,-0.496 7.657,-1.477 l 5.807,-2.165 C 262.916,435.82 362.19,326.247 362.19,182.648 362.19,57.164 265.688,0 176.014,0 Z"
       id="path1"
       style="fill:url(#linearGradient6);stroke-width:22.08827714;stroke:#1a5fb4;stroke-opacity:1;stroke-dasharray:none" />
    <path
       class="st0"
       d="m 455.486,126.84 c 22.771,0 41.282,-18.522 41.282,-41.292 0,-22.76 -18.512,-41.271 -41.282,-41.271 -22.759,0 -41.281,18.511 -41.281,41.271 0,22.77 18.521,41.292 41.281,41.292 z"
       id="path2"
       style="fill:url(#linearGradient6);stroke-width:22.08827714;stroke:#1a5fb4;stroke-opacity:1;stroke-dasharray:none" />
    <path
       class="st0"
       d="m 455.486,211.365 c -22.759,0 -41.281,18.522 -41.281,41.282 0,22.77 18.522,41.281 41.281,41.281 22.771,0 41.282,-18.511 41.282,-41.281 0,-22.76 -18.512,-41.282 -41.282,-41.282 z"
       id="path3"
       style="fill:url(#linearGradient6);stroke-width:22.08827714;stroke:#1a5fb4;stroke-opacity:1;stroke-dasharray:none" />
  </g>
</svg>
